<svg width="37" height="37" viewBox="0 0 37 37" fill="none" xmlns="http://www.w3.org/2000/svg">
<path d="M32.375 16.9583V13.875H29.2917V10.7917C29.2892 9.97467 28.9636 9.19183 28.3859 8.61412C27.8082 8.03641 27.0253 7.71077 26.2083 7.70833H23.125V4.625H20.0417V7.70833H16.9583V4.625H13.875V7.70833H10.7917C9.97467 7.71077 9.19183 8.03641 8.61412 8.61412C8.03641 9.19183 7.71077 9.97467 7.70833 10.7917V13.875H4.625V16.9583H7.70833V20.0417H4.625V23.125H7.70833V26.2083C7.71077 27.0253 8.03641 27.8082 8.61412 28.3859C9.19183 28.9636 9.97467 29.2892 10.7917 29.2917H13.875V32.375H16.9583V29.2917H20.0417V32.375H23.125V29.2917H26.2083C27.0253 29.2892 27.8082 28.9636 28.3859 28.3859C28.9636 27.8082 29.2892 27.0253 29.2917 26.2083V23.125H32.375V20.0417H29.2917V16.9583H32.375ZM26.2083 26.2083H10.7917V10.7917H26.2083V26.2083Z" fill="white"/>
<path d="M17.5151 12.3333H15.4415L12.3428 24.6666H13.9261L14.6414 21.776H18.2119L18.9087 24.6666H20.546L17.5151 12.3333ZM14.8495 20.5411L16.4189 13.7978H16.4899L18.0053 20.5411H14.8495ZM21.9597 12.3333H23.5014V24.6666H21.9597V12.3333Z" fill="white"/>
</svg>
